<svg xmlns="http://www.w3.org/2000/svg" width="32" height="32" viewBox="0 0 32 32"><g><g><path fill="#da4935" d="M16 0c8.837 0 16 7.166 16 16.005 0 8.839-7.163 16.005-16 16.005-.555 0-1.102-.028-1.642-.084 2.56-1.258 3.888-3.45 3.888-5.625 0-2.447-1.367-3.652-2.873-4.963l-1.232-.993c-.376-.32-.89-.744-.89-1.524s.514-1.276.96-1.737c1.435-1.17 2.872-2.41 2.872-5.033 0-2.695-1.642-4.112-2.429-4.786h2.121l2.189-1.276h-7.046c-1.848 0-4.173.284-6.123 1.95-1.471 1.311-2.19 3.119-2.19 4.75 0 2.765 2.053 5.565 5.679 5.565.342 0 .718-.036 1.095-.071-.172.425-.342.78-.342 1.383 0 1.098.546 1.772 1.025 2.41-1.538.106-4.412.283-6.533 1.63a5.857 5.857 0 0 0-1.679 1.519A15.935 15.935 0 0 1 0 16.005C0 7.165 7.163 0 16 0zm-3.775 23.004c2.601 1.914 3.729 2.87 3.729 4.679 0 1.983-1.42 3.503-4.11 3.782a15.976 15.976 0 0 1-6.922-3.912 3.91 3.91 0 0 1-.017-.366c0-2.517 2.19-3.368 2.942-3.652 1.437-.496 3.284-.568 3.592-.568.341 0 .513 0 .786.037zm.994-6.735c-.548.567-1.473.992-2.328.992-2.942 0-4.276-3.935-4.276-6.31 0-.92.17-1.878.753-2.623.548-.708 1.505-1.17 2.394-1.17 2.84 0 4.311 3.97 4.311 6.523 0 .638-.07 1.773-.854 2.588zm8.687-2.27h2v-3h3V9h-3V6h-2v3h-3v2h3z"/><path fill="#ebebeb" d="M16 0c8.837 0 16 7.166 16 16.005 0 8.839-7.163 16.005-16 16.005-.555 0-1.102-.028-1.642-.084 2.56-1.258 3.888-3.45 3.888-5.625 0-2.447-1.367-3.652-2.873-4.963l-1.232-.993c-.376-.32-.89-.744-.89-1.524s.514-1.276.96-1.737c1.435-1.17 2.872-2.41 2.872-5.033 0-2.695-1.642-4.112-2.429-4.786h2.121l2.189-1.276h-7.046c-1.848 0-4.173.284-6.123 1.95-1.471 1.311-2.19 3.119-2.19 4.75 0 2.765 2.053 5.565 5.679 5.565.342 0 .718-.036 1.095-.071-.172.425-.342.78-.342 1.383 0 1.098.546 1.772 1.025 2.41-1.538.106-4.412.283-6.533 1.63a5.857 5.857 0 0 0-1.679 1.519A15.935 15.935 0 0 1 0 16.005C0 7.165 7.163 0 16 0zm-3.775 23.004c2.601 1.914 3.729 2.87 3.729 4.679 0 1.983-1.42 3.503-4.11 3.782a15.976 15.976 0 0 1-6.922-3.912 3.91 3.91 0 0 1-.017-.366c0-2.517 2.19-3.368 2.942-3.652 1.437-.496 3.284-.568 3.592-.568.341 0 .513 0 .786.037zm.994-6.735c-.548.567-1.473.992-2.328.992-2.942 0-4.276-3.935-4.276-6.31 0-.92.17-1.878.753-2.623.548-.708 1.505-1.17 2.394-1.17 2.84 0 4.311 3.97 4.311 6.523 0 .638-.07 1.773-.854 2.588zm8.687-2.27h2v-3h3V9h-3V6h-2v3h-3v2h3z"/></g></g></svg>