<svg xmlns="http://www.w3.org/2000/svg" width="32" height="32" viewBox="0 0 32 32"><g><g><path fill="#005a87" d="M16 0c8.837 0 16 7.163 16 16s-7.163 16-16 16C7.164 32 0 24.837 0 16S7.164 0 16 0zM7.484 7.46a1.484 1.484 0 0 0-.476 1.108c0 .45.16.834.481 1.15a1.6 1.6 0 0 0 1.164.472c.442 0 .822-.155 1.14-.464.318-.31.477-.683.477-1.122 0-.444-.16-.823-.482-1.135a1.598 1.598 0 0 0-1.154-.47c-.449 0-.832.154-1.15.46zM7 23h3.275V10.993H7zm5.73 0l3.258-.002V18.64c0-1.282.054-2.117.163-2.502.208-.74.582-1.319 1.121-1.738.539-.419 1.184-.628 1.936-.628.58 0 1.067.126 1.46.38.395.252.671.62.83 1.103.158.484.238 1.46.238 2.933v4.81H25v-7.56c0-1.42-.49-2.494-1.351-3.219-1.025-.854-2.035-1.281-3.504-1.281-.717 0-1.181.115-1.866.347-.684.231-1.43.718-2.274 1.309v-1.6H12.73z"/><path fill="#ebebeb" d="M16 0c8.837 0 16 7.163 16 16s-7.163 16-16 16C7.164 32 0 24.837 0 16S7.164 0 16 0zM7.484 7.46a1.484 1.484 0 0 0-.476 1.108c0 .45.16.834.481 1.15a1.6 1.6 0 0 0 1.164.472c.442 0 .822-.155 1.14-.464.318-.31.477-.683.477-1.122 0-.444-.16-.823-.482-1.135a1.598 1.598 0 0 0-1.154-.47c-.449 0-.832.154-1.15.46zM7 23h3.275V10.993H7zm5.73 0l3.258-.002V18.64c0-1.282.054-2.117.163-2.502.208-.74.582-1.319 1.121-1.738.539-.419 1.184-.628 1.936-.628.58 0 1.067.126 1.46.38.395.252.671.62.83 1.103.158.484.238 1.46.238 2.933v4.81H25v-7.56c0-1.42-.49-2.494-1.351-3.219-1.025-.854-2.035-1.281-3.504-1.281-.717 0-1.181.115-1.866.347-.684.231-1.43.718-2.274 1.309v-1.6H12.73z"/></g></g></svg>